<?xml version="1.0" standalone="no"?>
<!DOCTYPE svg PUBLIC "-//W3C//DTD SVG 20010904//EN"
 "http://www.w3.org/TR/2001/REC-SVG-20010904/DTD/svg10.dtd">
<svg version="1.0" xmlns="http://www.w3.org/2000/svg"
 width="1280.000000pt" height="502.000000pt" viewBox="0 0 1280.000000 502.000000"
 preserveAspectRatio="xMidYMid meet">

<g transform="translate(0.000000,502.000000) scale(0.100000,-0.100000)"
fill="#000000" stroke="none">
<path d="M0 2510 l0 -2510 6400 0 6400 0 0 2510 0 2510 -6400 0 -6400 0 0
-2510z m2774 1311 l62 -32 50 25 c43 23 54 25 89 15 50 -13 225 -99 225 -111
0 -4 5 -8 10 -8 6 0 52 -29 104 -65 52 -36 102 -65 112 -65 11 0 80 15 154 34
74 19 169 39 210 45 41 6 107 16 145 22 117 19 429 16 502 -4 191 -53 268
-133 266 -277 -3 -178 -134 -339 -448 -551 -193 -130 -362 -237 -465 -292 -36
-19 -103 -56 -150 -83 -212 -119 -719 -374 -745 -374 -2 0 -28 -11 -57 -25
-64 -30 -401 -163 -443 -175 -16 -5 -109 -35 -205 -68 -96 -32 -206 -67 -245
-76 -38 -10 -99 -26 -135 -36 -99 -27 -318 -74 -510 -109 -457 -83 -864 -63
-992 49 -18 16 -36 30 -39 30 -3 0 -15 17 -27 39 -46 82 -20 193 77 331 48 69
213 239 320 330 93 81 323 250 331 245 4 -2 10 -61 13 -131 l7 -126 -93 -88
c-110 -105 -156 -176 -163 -252 -9 -90 35 -137 166 -179 84 -27 334 -37 506
-20 269 27 719 135 966 232 44 18 59 86 37 175 -11 42 -13 44 -49 44 -21 0
-58 11 -85 26 -48 25 -54 25 -227 24 -199 -1 -212 2 -268 67 -57 65 -81 132
-87 243 -10 169 21 246 140 354 43 39 95 94 115 121 68 94 109 119 158 96 51
-23 127 -14 203 25 64 33 74 35 101 24 18 -8 36 -27 48 -54 11 -23 27 -48 35
-54 16 -14 195 -92 209 -92 5 0 26 18 47 40 21 22 47 40 58 40 12 0 53 -13 91
-30 122 -52 202 -36 202 40 0 46 -38 84 -94 94 -20 4 -64 20 -99 36 -81 39
-106 39 -113 0 -5 -22 -12 -30 -28 -30 -16 0 -31 16 -58 63 -38 63 -51 78
-100 110 -59 37 -81 7 -25 -36 67 -52 79 -65 75 -89 -2 -16 -11 -24 -28 -26
-21 -2 -38 11 -90 72 -36 41 -75 78 -87 81 -35 11 -106 -28 -187 -103 -99 -92
-149 -103 -203 -45 -30 32 -30 84 0 118 18 22 34 27 85 32 34 3 62 9 63 12 1
3 2 21 4 39 4 43 20 60 64 68 20 4 52 20 72 36 51 41 86 48 217 41 95 -4 121
-2 137 10 19 14 18 16 -13 42 -18 15 -32 36 -32 46 0 25 -26 35 -45 19 -19
-16 -19 -44 0 -60 28 -23 18 -40 -24 -40 -51 0 -165 59 -169 87 -2 15 8 25 42
41 24 12 48 26 51 32 4 7 21 21 39 31 46 30 138 21 220 -20z m3334 1 c10 -7
93 -182 119 -252 3 -8 53 -123 110 -255 58 -132 132 -303 165 -380 33 -77 76
-173 94 -213 19 -40 34 -75 34 -78 0 -3 14 -36 31 -72 80 -170 159 -358 159
-379 0 -10 -62 -13 -315 -13 l-315 0 -10 26 c-6 14 -21 50 -35 80 -14 30 -25
57 -25 59 0 6 -24 59 -71 163 -16 35 -29 65 -29 67 0 2 -11 28 -24 57 -13 29
-36 82 -51 118 -15 36 -36 83 -45 105 -10 22 -46 105 -80 185 -34 80 -73 169
-86 198 -13 29 -24 54 -24 57 0 2 -15 36 -34 77 -18 40 -39 90 -45 110 -7 21
-27 49 -44 64 -33 27 -150 132 -244 218 -39 36 -50 52 -41 57 17 11 789 11
806 1z m2398 2 c16 -4 40 -48 99 -182 70 -157 124 -277 185 -407 10 -22 39
-85 63 -140 25 -55 59 -129 75 -165 17 -36 68 -148 115 -250 46 -102 96 -210
110 -240 89 -193 107 -234 107 -246 0 -12 -55 -14 -308 -14 l-307 0 -12 28
c-6 15 -30 77 -54 137 -23 61 -49 115 -57 122 -17 14 -468 18 -517 5 -26 -7
-36 -23 -92 -148 l-62 -139 -295 -3 c-163 -1 -296 1 -296 6 0 4 27 63 60 130
33 66 60 123 60 125 0 3 34 75 75 160 41 86 75 158 75 161 0 3 26 58 58 123
32 65 79 163 104 218 26 55 66 143 91 195 24 52 59 127 77 165 18 39 52 112
76 163 24 51 44 97 44 102 0 6 4 10 9 10 5 0 11 13 14 29 12 60 17 61 260 61
122 0 231 -3 243 -6z m1322 -10 c7 -12 79 -100 97 -118 6 -6 44 -51 85 -101
41 -49 87 -103 101 -120 15 -16 84 -97 153 -180 70 -82 132 -151 137 -153 5
-2 9 130 9 336 0 301 2 341 16 346 23 9 527 7 542 -2 10 -7 12 -178 10 -823
l-3 -814 -225 -3 c-255 -3 -218 -14 -310 98 -25 30 -47 57 -50 60 -3 3 -34 39
-70 80 -36 41 -80 92 -99 112 -19 21 -41 47 -49 59 -8 12 -34 42 -58 68 -24
25 -72 81 -106 123 -35 42 -69 79 -75 82 -10 4 -13 -67 -13 -339 l0 -345 -279
0 -279 0 -6 23 c-8 34 -7 1613 2 1621 12 13 462 2 470 -10z m-5722 -1200 c10
-39 -3 -440 -16 -514 -17 -95 -58 -255 -85 -333 -152 -433 -534 -779 -981
-887 -186 -45 -254 -53 -464 -53 -176 -1 -218 2 -300 21 -119 27 -260 73 -260
84 0 4 -7 8 -15 8 -15 0 -92 44 -164 93 -56 38 -148 129 -189 186 -40 54 -29
75 20 39 106 -78 370 -183 562 -224 114 -24 344 -29 461 -10 215 36 447 141
625 283 79 63 194 179 243 243 23 30 45 57 48 60 22 20 101 152 144 244 87
183 123 328 133 536 l7 145 100 52 c55 28 106 52 112 52 7 1 16 -11 19 -25z
m-666 -356 c-1 -16 -21 -39 -64 -73 -73 -58 -99 -92 -127 -166 -17 -44 -19
-60 -10 -95 28 -111 4 -205 -68 -264 -23 -19 -54 -53 -69 -75 -36 -54 -115
-149 -177 -211 -58 -60 -111 -89 -178 -98 -54 -8 -139 8 -157 29 -6 7 -19 54
-29 104 -14 67 -26 100 -47 127 -16 19 -38 46 -48 59 -23 29 -23 83 0 167 23
81 53 110 144 138 175 54 499 205 695 324 100 61 135 69 135 34z m5615 -369
c92 -25 140 -111 139 -249 -1 -145 -53 -226 -158 -245 -58 -11 -102 2 -145 44
-52 51 -66 97 -66 211 1 73 5 103 19 129 28 53 68 91 111 106 49 17 51 17 100
4z m1568 -11 c11 -5 16 -16 13 -25 -3 -8 -6 -19 -6 -24 0 -6 -23 -7 -59 -3
-52 6 -61 4 -80 -15 -42 -42 -21 -78 84 -144 57 -36 78 -73 77 -133 -1 -91
-71 -152 -163 -141 -76 9 -105 37 -80 76 8 12 14 12 39 2 79 -33 155 13 136
81 -8 26 -24 41 -77 73 -80 48 -114 99 -103 157 8 45 40 86 80 104 32 15 105
11 139 -8z m-4365 -236 l2 -243 -32 3 -33 3 -3 229 c-3 241 1 260 42 254 21
-3 21 -8 24 -246z m152 236 c15 -16 99 -170 148 -268 l37 -75 5 175 5 175 25
0 25 0 3 -242 2 -243 -33 0 c-32 0 -34 2 -122 174 -50 96 -92 172 -94 170 -2
-2 -3 -74 -2 -161 1 -87 -3 -164 -7 -171 -5 -8 -20 -12 -33 -10 l-24 3 -3 229
c-2 160 1 233 9 242 14 17 45 18 59 2z m590 -7 c18 -35 3 -50 -58 -53 l-57 -3
0 -180 c-1 -247 1 -235 -35 -235 l-30 0 0 210 0 210 -59 0 c-64 0 -80 14 -61
51 10 17 23 19 150 19 127 0 140 -2 150 -19z m274 3 c4 -9 4 -25 1 -35 -6 -16
-17 -19 -86 -19 l-80 0 3 -67 3 -68 67 0 c73 -1 94 -11 83 -44 -5 -17 -16 -21
-78 -23 l-72 -3 0 -75 0 -75 83 -3 83 -3 -3 -32 -3 -32 -95 -3 c-52 -2 -105 0
-117 3 l-23 5 0 239 c0 182 3 241 13 244 6 3 58 6 113 6 86 1 103 -2 108 -15z
m287 -21 c51 -51 53 -152 4 -195 -24 -21 -24 -21 -6 -47 16 -23 51 -157 51
-197 0 -9 -11 -14 -30 -14 -32 0 -38 14 -59 125 -11 57 -25 73 -71 77 l-35 3
-5 -100 -5 -100 -32 -3 -33 -3 0 239 c0 131 3 242 8 246 4 5 47 6 95 4 82 -4
90 -6 118 -35z m174 29 c6 -4 23 -32 38 -62 73 -146 147 -284 147 -275 0 6 2
84 3 175 l2 165 24 3 c13 2 28 -2 33 -10 11 -17 7 -447 -5 -471 -6 -13 -14
-16 -30 -11 -34 11 -29 3 -150 239 l-62 120 -3 -177 -2 -178 -30 0 -30 0 0
238 c0 131 3 242 7 245 9 9 45 9 58 -1z m511 0 c11 -7 14 -16 44 -127 10 -38
34 -126 54 -194 45 -155 45 -161 6 -161 -28 0 -30 4 -50 69 -22 73 -31 81 -85
77 -16 -2 -40 -4 -51 -4 -16 -2 -23 -11 -28 -37 -13 -68 -34 -105 -61 -105
-31 0 -37 10 -25 46 6 16 35 119 66 229 31 110 58 203 60 207 6 10 56 10 70 0z
m404 -7 c6 -8 9 -23 5 -35 -5 -17 -15 -20 -61 -20 -36 0 -54 -4 -54 -12 -1 -7
-2 -101 -3 -208 l-2 -195 -32 -3 -33 -3 -2 208 -3 208 -55 5 c-56 5 -70 19
-56 56 8 21 278 21 296 -1z m108 -231 c2 -230 1 -242 -17 -247 -44 -11 -46 0
-47 240 -1 147 2 233 9 241 6 7 20 12 31 10 21 -3 21 -8 24 -244z m570 234
c11 -14 73 -130 134 -250 22 -43 43 -80 46 -82 4 -2 7 73 7 167 l0 172 28 3
c15 2 27 2 28 0 4 -14 8 -448 4 -465 -4 -17 -13 -23 -34 -23 -35 0 -41 8 -145
215 l-76 150 0 -182 0 -183 -30 0 -30 0 0 245 0 245 29 0 c16 0 33 -6 39 -12z
m517 -5 c4 -10 22 -74 41 -143 39 -144 60 -217 79 -278 16 -48 9 -57 -36 -50
-19 2 -27 15 -42 68 -11 36 -23 67 -27 70 -4 3 -35 4 -67 2 l-60 -4 -19 -66
c-16 -56 -23 -68 -43 -70 -13 -2 -27 0 -32 5 -6 7 112 450 127 475 10 16 72 9
79 -9z m245 -198 l5 -210 83 -3 82 -3 0 -29 0 -30 -114 0 -115 0 -3 233 c-2
127 -1 238 1 245 2 8 15 12 30 10 l26 -3 5 -210z m817 160 c7 -27 23 -81 34
-120 11 -38 27 -95 35 -125 9 -30 20 -65 24 -76 5 -12 12 -42 15 -68 l7 -46
-30 0 c-29 0 -32 4 -54 73 l-23 72 -64 0 -64 0 -16 -60 c-21 -76 -27 -85 -56
-85 -31 0 -37 11 -25 46 6 16 33 112 61 214 66 243 61 232 106 228 34 -3 37
-6 50 -53z"/>
<path d="M2888 3463 c-31 -35 -31 -60 -2 -79 33 -22 132 -44 202 -44 44 0 52
3 52 19 0 10 -15 30 -32 44 -18 14 -46 37 -62 51 -24 21 -39 26 -86 26 -42 0
-61 -5 -72 -17z"/>
<path d="M3613 3424 c-7 -3 22 -47 73 -112 82 -103 246 -341 260 -375 11 -29
29 -19 100 51 76 76 134 175 134 229 0 101 -90 174 -251 202 -64 11 -292 14
-316 5z"/>
<path d="M3389 3058 c-3 -28 4 -44 44 -101 l42 -59 49 5 c65 6 86 -14 86 -81
0 -73 -56 -155 -143 -210 -37 -23 -71 -42 -76 -42 -9 0 -32 36 -96 155 -36 65
-82 139 -111 175 -54 66 -68 80 -80 80 -8 0 -14 -5 -14 -11 0 -17 84 -183 103
-204 11 -11 53 -71 94 -132 65 -99 78 -113 102 -113 24 0 72 28 191 110 8 6
51 34 95 62 126 82 123 78 88 135 -43 70 -100 110 -168 118 -31 4 -61 13 -68
19 -55 51 -121 106 -128 106 -5 0 -10 -6 -10 -12z"/>
<path d="M8212 3017 c-29 -89 -52 -168 -52 -174 0 -10 28 -13 105 -13 119 0
117 -1 91 81 -8 24 -29 91 -47 149 -18 58 -35 108 -38 112 -3 4 -30 -66 -59
-155z"/>
<path d="M8952 1811 c-57 -48 -78 -170 -46 -263 42 -123 164 -125 206 -2 33
97 18 196 -37 251 -39 39 -89 44 -123 14z"/>
<path d="M7417 1823 c-4 -3 -7 -42 -7 -86 l0 -80 36 6 c62 10 84 31 84 80 0
23 -4 47 -8 53 -18 27 -88 45 -105 27z"/>
<path d="M8207 1780 c-4 -8 -13 -43 -22 -77 -8 -34 -18 -69 -21 -77 -4 -10 6
-15 42 -18 26 -2 48 1 50 7 2 5 -7 48 -20 95 -13 47 -26 78 -29 70z"/>
<path d="M9776 1708 c-10 -40 -21 -79 -23 -85 -4 -10 9 -13 47 -13 37 0 51 4
48 13 -3 6 -13 45 -23 85 -11 39 -21 72 -25 72 -3 0 -14 -33 -24 -72z"/>
<path d="M10847 1780 c-2 -8 -12 -42 -20 -75 -9 -33 -19 -68 -22 -77 -6 -16
-1 -18 44 -18 51 0 51 0 45 28 -21 89 -43 155 -47 142z"/>
</g>
</svg>
